<?xml version="1.0" encoding="UTF-8"?>
<!DOCTYPE svg PUBLIC "-//W3C//DTD SVG 1.1//EN" "http://www.w3.org/Graphics/SVG/1.1/DTD/svg11.dtd">
<svg xmlns="http://www.w3.org/2000/svg" version="1.1" width="512px" height="512px" style="shape-rendering:geometricPrecision; text-rendering:geometricPrecision; image-rendering:optimizeQuality; fill-rule:evenodd; clip-rule:evenodd" xmlns:xlink="http://www.w3.org/1999/xlink">
<g><path style="opacity:1" fill="#fefffe" d="M 452.5,89.5 C 452.821,91.0481 453.821,91.7148 455.5,91.5C 455.5,93.1667 455.5,94.8333 455.5,96.5C 455.285,98.1788 455.952,99.1788 457.5,99.5C 457.5,133.5 457.5,167.5 457.5,201.5C 457.5,202.5 457.5,203.5 457.5,204.5C 458.5,204.5 459.5,204.5 460.5,204.5C 460.5,256.5 460.5,308.5 460.5,360.5C 459.5,360.5 458.5,360.5 457.5,360.5C 457.31,364.923 456.643,369.256 455.5,373.5C 454.5,373.5 453.5,373.5 452.5,373.5C 452.989,377.487 451.322,379.82 447.5,380.5C 447.5,381.5 447.5,382.5 447.5,383.5C 446.5,383.5 445.5,383.5 444.5,383.5C 444.167,386.5 442.5,388.167 439.5,388.5C 438.82,392.322 436.487,393.989 432.5,393.5C 432.5,394.5 432.5,395.5 432.5,396.5C 428.256,397.643 423.923,398.31 419.5,398.5C 418.5,398.5 417.5,398.5 416.5,398.5C 416.5,399.5 416.5,400.5 416.5,401.5C 404.5,401.5 392.5,401.5 380.5,401.5C 380.715,399.821 380.048,398.821 378.5,398.5C 362.167,398.5 345.833,398.5 329.5,398.5C 329.5,399.5 329.5,400.5 329.5,401.5C 321.157,402.066 312.823,402.732 304.5,403.5C 303.5,403.5 302.5,403.5 301.5,403.5C 301.5,404.5 301.5,405.5 301.5,406.5C 297.167,406.5 292.833,406.5 288.5,406.5C 288.5,407.5 288.5,408.5 288.5,409.5C 284.991,409.458 281.658,410.124 278.5,411.5C 277.5,411.5 276.5,411.5 275.5,411.5C 275.5,412.5 275.5,413.5 275.5,414.5C 273.989,415.502 272.322,416.169 270.5,416.5C 270.715,418.179 270.048,419.179 268.5,419.5C 266.821,419.285 265.821,419.952 265.5,421.5C 263.952,421.821 263.285,422.821 263.5,424.5C 262.5,424.5 261.5,424.5 260.5,424.5C 260.5,425.5 260.5,426.5 260.5,427.5C 257.692,427.693 255.025,428.36 252.5,429.5C 251.82,433.322 249.487,434.989 245.5,434.5C 245.5,435.5 245.5,436.5 245.5,437.5C 242.975,438.64 240.308,439.307 237.5,439.5C 237.5,440.5 237.5,441.5 237.5,442.5C 232.606,443.811 227.606,444.477 222.5,444.5C 222.5,445.5 222.5,446.5 222.5,447.5C 217.167,447.5 211.833,447.5 206.5,447.5C 206.715,445.821 206.048,444.821 204.5,444.5C 201.833,444.5 199.167,444.5 196.5,444.5C 196.5,443.167 195.833,442.5 194.5,442.5C 192.5,442.5 190.5,442.5 188.5,442.5C 188.715,440.821 188.048,439.821 186.5,439.5C 186.179,437.952 185.179,437.285 183.5,437.5C 181.952,437.179 181.285,436.179 181.5,434.5C 178.5,434.167 176.833,432.5 176.5,429.5C 172.47,428.494 170.803,425.827 171.5,421.5C 169.5,420.833 167.5,420.167 165.5,419.5C 165.307,416.692 164.64,414.025 163.5,411.5C 162.5,411.5 161.5,411.5 160.5,411.5C 160.307,408.692 159.64,406.025 158.5,403.5C 157.5,403.5 156.5,403.5 155.5,403.5C 155.989,399.513 154.322,397.18 150.5,396.5C 150.5,395.5 150.5,394.5 150.5,393.5C 150.179,391.952 149.179,391.285 147.5,391.5C 147.169,389.678 146.502,388.011 145.5,386.5C 145.5,385.5 145.5,384.5 145.5,383.5C 144.5,383.5 143.5,383.5 142.5,383.5C 142.169,381.678 141.502,380.011 140.5,378.5C 140.5,377.5 140.5,376.5 140.5,375.5C 139.5,375.5 138.5,375.5 137.5,375.5C 136.498,373.989 135.831,372.322 135.5,370.5C 134.5,370.5 133.5,370.5 132.5,370.5C 132.989,366.513 131.322,364.18 127.5,363.5C 127.5,361.5 127.5,359.5 127.5,357.5C 123.678,356.82 122.011,354.487 122.5,350.5C 121.5,350.5 120.5,350.5 119.5,350.5C 118.36,347.975 117.693,345.308 117.5,342.5C 116.5,342.5 115.5,342.5 114.5,342.5C 113.36,339.975 112.693,337.308 112.5,334.5C 108.678,333.82 107.011,331.487 107.5,327.5C 106.5,327.5 105.5,327.5 104.5,327.5C 104.5,326.5 104.5,325.5 104.5,324.5C 103.5,324.5 102.5,324.5 101.5,324.5C 101.307,321.692 100.64,319.025 99.5,316.5C 97.8212,316.715 96.8212,316.048 96.5,314.5C 96.7148,312.821 96.0481,311.821 94.5,311.5C 94.1788,309.952 93.1788,309.285 91.5,309.5C 91.5,308.5 91.5,307.5 91.5,306.5C 91.5,305.167 90.8333,304.5 89.5,304.5C 89.5,303.5 89.5,302.5 89.5,301.5C 87.8212,301.715 86.8212,301.048 86.5,299.5C 86.5,298.5 86.5,297.5 86.5,296.5C 85.5,296.5 84.5,296.5 83.5,296.5C 83.1667,293.5 81.5,291.833 78.5,291.5C 78.3067,288.692 77.64,286.025 76.5,283.5C 75.5,283.5 74.5,283.5 73.5,283.5C 73.3067,280.692 72.64,278.025 71.5,275.5C 70.5,275.5 69.5,275.5 68.5,275.5C 68.9886,271.513 67.322,269.18 63.5,268.5C 63.5,266.833 63.5,265.167 63.5,263.5C 62.5,263.5 61.5,263.5 60.5,263.5C 59.36,260.975 58.6933,258.308 58.5,255.5C 57.5,255.5 56.5,255.5 55.5,255.5C 54.36,252.975 53.6933,250.308 53.5,247.5C 49.678,246.82 48.0114,244.487 48.5,240.5C 47.5,240.5 46.5,240.5 45.5,240.5C 45.1692,238.678 44.5025,237.011 43.5,235.5C 43.5,234.5 43.5,233.5 43.5,232.5C 42.5,232.5 41.5,232.5 40.5,232.5C 40.5,231.5 40.5,230.5 40.5,229.5C 39.5,229.5 38.5,229.5 37.5,229.5C 36.8333,226.167 36.1667,222.833 35.5,219.5C 34.5,219.5 33.5,219.5 32.5,219.5C 32.5,216.833 32.5,214.167 32.5,211.5C 32.5,210.167 31.8333,209.5 30.5,209.5C 30.4343,200.762 31.101,192.096 32.5,183.5C 34.1788,183.715 35.1788,183.048 35.5,181.5C 35.6933,178.692 36.36,176.025 37.5,173.5C 39.1788,173.715 40.1788,173.048 40.5,171.5C 40.5,170.5 40.5,169.5 40.5,168.5C 41.5,168.5 42.5,168.5 43.5,168.5C 43.8333,165.5 45.5,163.833 48.5,163.5C 49.1797,159.678 51.513,158.011 55.5,158.5C 55.5,157.5 55.5,156.5 55.5,155.5C 58.5,155.167 60.1667,153.5 60.5,150.5C 62.5,150.5 64.5,150.5 66.5,150.5C 66.8333,147.5 68.5,145.833 71.5,145.5C 71.5,144.5 71.5,143.5 71.5,142.5C 75.487,142.989 77.8203,141.322 78.5,137.5C 81.5,137.167 83.1667,135.5 83.5,132.5C 85.5,131.833 87.5,131.167 89.5,130.5C 89.5,129.5 89.5,128.5 89.5,127.5C 91.1667,127.5 92.8333,127.5 94.5,127.5C 94.2852,125.821 94.9519,124.821 96.5,124.5C 98.1788,124.715 99.1788,124.048 99.5,122.5C 101.048,122.179 101.715,121.179 101.5,119.5C 105.212,119.039 108.879,118.373 112.5,117.5C 112.5,116.5 112.5,115.5 112.5,114.5C 115.076,114.532 117.409,113.865 119.5,112.5C 120.5,112.5 121.5,112.5 122.5,112.5C 122.5,111.5 122.5,110.5 122.5,109.5C 124.916,108.032 127.583,107.365 130.5,107.5C 130.5,106.5 130.5,105.5 130.5,104.5C 132.167,104.5 133.833,104.5 135.5,104.5C 136.18,100.678 138.513,99.0114 142.5,99.5C 142.5,98.5 142.5,97.5 142.5,96.5C 143.5,96.5 144.5,96.5 145.5,96.5C 146.833,96.5 147.5,95.8333 147.5,94.5C 149.5,94.5 151.5,94.5 153.5,94.5C 153.5,93.5 153.5,92.5 153.5,91.5C 158.474,90.6737 163.474,90.0071 168.5,89.5C 168.5,88.5 168.5,87.5 168.5,86.5C 170.167,86.5 171.833,86.5 173.5,86.5C 174.5,86.5 175.5,86.5 176.5,86.5C 176.5,85.5 176.5,84.5 176.5,83.5C 181.474,82.6737 186.474,82.0071 191.5,81.5C 192.5,81.5 193.5,81.5 194.5,81.5C 194.5,80.5 194.5,79.5 194.5,78.5C 200.111,77.4453 205.778,76.7786 211.5,76.5C 211.5,75.5 211.5,74.5 211.5,73.5C 214.167,73.5 216.833,73.5 219.5,73.5C 221.179,73.7148 222.179,73.0481 222.5,71.5C 224.833,71.5 227.167,71.5 229.5,71.5C 229.5,70.5 229.5,69.5 229.5,68.5C 234.944,68.5393 240.277,67.8727 245.5,66.5C 245.5,65.5 245.5,64.5 245.5,63.5C 247.167,63.5 248.833,63.5 250.5,63.5C 250.5,62.5 250.5,61.5 250.5,60.5C 280.627,59.2497 310.794,58.583 341,58.5C 369.894,58.5499 398.728,59.2166 427.5,60.5C 427.5,61.5 427.5,62.5 427.5,63.5C 429.167,63.5 430.833,63.5 432.5,63.5C 432.5,64.5 432.5,65.5 432.5,66.5C 436.487,66.0114 438.82,67.678 439.5,71.5C 442.5,71.8333 444.167,73.5 444.5,76.5C 445.5,76.5 446.5,76.5 447.5,76.5C 447.5,78.1667 447.5,79.8333 447.5,81.5C 451.53,82.5063 453.197,85.173 452.5,89.5 Z M 265.5,81.5 C 317.575,80.8785 369.575,81.5452 421.5,83.5C 421.5,84.5 421.5,85.5 421.5,86.5C 422.5,86.5 423.5,86.5 424.5,86.5C 424.5,87.5 424.5,88.5 424.5,89.5C 428.322,90.1797 429.989,92.513 429.5,96.5C 430.5,96.5 431.5,96.5 432.5,96.5C 434.441,136.756 435.108,177.089 434.5,217.5C 434.821,219.048 435.821,219.715 437.5,219.5C 437.5,263.833 437.5,308.167 437.5,352.5C 436.5,352.5 435.5,352.5 434.5,352.5C 434.307,355.308 433.64,357.975 432.5,360.5C 431.5,360.5 430.5,360.5 429.5,360.5C 429.5,361.5 429.5,362.5 429.5,363.5C 428.448,365.256 426.781,365.923 424.5,365.5C 424.5,366.5 424.5,367.5 424.5,368.5C 421.342,369.876 418.009,370.542 414.5,370.5C 414.5,371.5 414.5,372.5 414.5,373.5C 364.167,373.5 313.833,373.5 263.5,373.5C 263.5,372.5 263.5,371.5 263.5,370.5C 262.5,370.5 261.5,370.5 260.5,370.5C 258.084,369.032 255.417,368.365 252.5,368.5C 252.169,366.678 251.502,365.011 250.5,363.5C 250.5,362.5 250.5,361.5 250.5,360.5C 249.5,360.5 248.5,360.5 247.5,360.5C 246.124,357.342 245.458,354.009 245.5,350.5C 244.5,350.5 243.5,350.5 242.5,350.5C 242.5,291.5 242.5,232.5 242.5,173.5C 242.923,171.219 242.256,169.552 240.5,168.5C 239.94,145.414 240.607,122.414 242.5,99.5C 243.5,99.5 244.5,99.5 245.5,99.5C 245.5,98.5 245.5,97.5 245.5,96.5C 246.502,94.9891 247.169,93.3224 247.5,91.5C 250.5,91.1667 252.167,89.5 252.5,86.5C 253.5,86.5 254.5,86.5 255.5,86.5C 256.5,86.5 257.5,86.5 258.5,86.5C 258.5,85.5 258.5,84.5 258.5,83.5C 260.167,83.5 261.833,83.5 263.5,83.5C 264.833,83.5 265.5,82.8333 265.5,81.5 Z M 217.5,181.5 C 217.5,182.833 218.167,183.5 219.5,183.5C 219.5,219.5 219.5,255.5 219.5,291.5C 218.833,291.5 218.167,291.5 217.5,291.5C 217.5,287.167 217.5,282.833 217.5,278.5C 216.5,278.5 215.5,278.5 214.5,278.5C 214.5,273.5 214.5,268.5 214.5,263.5C 213.5,263.5 212.5,263.5 211.5,263.5C 211.163,254.138 210.496,244.804 209.5,235.5C 209.5,234.5 209.5,233.5 209.5,232.5C 208.5,232.5 207.5,232.5 206.5,232.5C 205.658,223.182 204.991,213.849 204.5,204.5C 203.5,204.5 202.5,204.5 201.5,204.5C 201.163,195.138 200.496,185.804 199.5,176.5C 199.5,175.5 199.5,174.5 199.5,173.5C 198.5,173.5 197.5,173.5 196.5,173.5C 195.658,164.182 194.991,154.849 194.5,145.5C 193.5,145.5 192.5,145.5 191.5,145.5C 191.5,136.833 191.5,128.167 191.5,119.5C 192.5,119.5 193.5,119.5 194.5,119.5C 194.468,116.924 195.135,114.591 196.5,112.5C 197.5,112.5 198.5,112.5 199.5,112.5C 199.5,111.5 199.5,110.5 199.5,109.5C 200.833,109.5 201.5,108.833 201.5,107.5C 202.5,107.5 203.5,107.5 204.5,107.5C 204.5,106.5 204.5,105.5 204.5,104.5C 206.167,104.5 207.833,104.5 209.5,104.5C 209.5,103.5 209.5,102.5 209.5,101.5C 212.167,101.5 214.833,101.5 217.5,101.5C 217.5,128.167 217.5,154.833 217.5,181.5 Z M 168.5,112.5 C 168.5,113.167 168.5,113.833 168.5,114.5C 168.5,125.5 168.5,136.5 168.5,147.5C 168.5,148.5 168.5,149.5 168.5,150.5C 169.5,150.5 170.5,150.5 171.5,150.5C 172.342,159.818 173.009,169.151 173.5,178.5C 174.5,178.5 175.5,178.5 176.5,178.5C 176.837,187.862 177.504,197.196 178.5,206.5C 178.5,207.5 178.5,208.5 178.5,209.5C 179.5,209.5 180.5,209.5 181.5,209.5C 182.342,218.818 183.009,228.151 183.5,237.5C 184.5,237.5 185.5,237.5 186.5,237.5C 186.991,246.849 187.658,256.182 188.5,265.5C 188.5,266.5 188.5,267.5 188.5,268.5C 189.5,268.5 190.5,268.5 191.5,268.5C 191.5,272.833 191.5,277.167 191.5,281.5C 192.5,281.5 193.5,281.5 194.5,281.5C 195.167,291.5 195.833,301.5 196.5,311.5C 197.5,311.5 198.5,311.5 199.5,311.5C 199.5,315.833 199.5,320.167 199.5,324.5C 199.5,325.5 199.5,326.5 199.5,327.5C 198.5,327.5 197.5,327.5 196.5,327.5C 195.833,322.167 195.167,316.833 194.5,311.5C 194.179,309.952 193.179,309.285 191.5,309.5C 191.5,306.833 191.5,304.167 191.5,301.5C 190.5,301.5 189.5,301.5 188.5,301.5C 187.993,296.474 187.326,291.474 186.5,286.5C 185.5,286.5 184.5,286.5 183.5,286.5C 183.5,283.833 183.5,281.167 183.5,278.5C 183.715,276.821 183.048,275.821 181.5,275.5C 181.5,273.167 181.5,270.833 181.5,268.5C 180.5,268.5 179.5,268.5 178.5,268.5C 177.833,263.167 177.167,257.833 176.5,252.5C 175.5,252.5 174.5,252.5 173.5,252.5C 173.5,250.167 173.5,247.833 173.5,245.5C 173.715,243.821 173.048,242.821 171.5,242.5C 171.5,240.167 171.5,237.833 171.5,235.5C 170.5,235.5 169.5,235.5 168.5,235.5C 168.5,232.833 168.5,230.167 168.5,227.5C 167.5,227.5 166.5,227.5 165.5,227.5C 164.574,221.535 163.908,215.535 163.5,209.5C 162.5,209.5 161.5,209.5 160.5,209.5C 159.993,204.474 159.326,199.474 158.5,194.5C 157.5,194.5 156.5,194.5 155.5,194.5C 155.5,191.833 155.5,189.167 155.5,186.5C 155.715,184.821 155.048,183.821 153.5,183.5C 153.5,181.167 153.5,178.833 153.5,176.5C 152.5,176.5 151.5,176.5 150.5,176.5C 150.5,173.833 150.5,171.167 150.5,168.5C 149.5,168.5 148.5,168.5 147.5,168.5C 146.993,163.474 146.326,158.474 145.5,153.5C 145.5,152.5 145.5,151.5 145.5,150.5C 144.5,150.5 143.5,150.5 142.5,150.5C 142.5,144.5 142.5,138.5 142.5,132.5C 143.5,132.5 144.5,132.5 145.5,132.5C 146.167,129.167 146.833,125.833 147.5,122.5C 148.5,122.5 149.5,122.5 150.5,122.5C 151.5,122.5 152.5,122.5 153.5,122.5C 153.5,121.5 153.5,120.5 153.5,119.5C 155.591,118.135 157.924,117.468 160.5,117.5C 160.5,116.5 160.5,115.5 160.5,114.5C 163.308,114.307 165.975,113.64 168.5,112.5 Z M 119.5,155.5 C 119.5,156.5 119.5,157.5 119.5,158.5C 120.5,158.5 121.5,158.5 122.5,158.5C 123.326,163.474 123.993,168.474 124.5,173.5C 125.5,173.5 126.5,173.5 127.5,173.5C 127.5,176.167 127.5,178.833 127.5,181.5C 128.5,181.5 129.5,181.5 130.5,181.5C 130.5,183.833 130.5,186.167 130.5,188.5C 130.285,190.179 130.952,191.179 132.5,191.5C 132.5,194.167 132.5,196.833 132.5,199.5C 133.5,199.5 134.5,199.5 135.5,199.5C 136.326,204.474 136.993,209.474 137.5,214.5C 138.5,214.5 139.5,214.5 140.5,214.5C 140.908,220.535 141.574,226.535 142.5,232.5C 143.5,232.5 144.5,232.5 145.5,232.5C 146.007,237.526 146.674,242.526 147.5,247.5C 147.5,248.5 147.5,249.5 147.5,250.5C 148.5,250.5 149.5,250.5 150.5,250.5C 150.5,253.167 150.5,255.833 150.5,258.5C 151.5,258.5 152.5,258.5 153.5,258.5C 154.326,263.474 154.993,268.474 155.5,273.5C 156.5,273.5 157.5,273.5 158.5,273.5C 158.5,276.167 158.5,278.833 158.5,281.5C 158.5,282.833 159.167,283.5 160.5,283.5C 160.5,286.167 160.5,288.833 160.5,291.5C 161.5,291.5 162.5,291.5 163.5,291.5C 164.007,296.526 164.674,301.526 165.5,306.5C 166.5,306.5 167.5,306.5 168.5,306.5C 168.5,309.167 168.5,311.833 168.5,314.5C 168.821,316.048 169.821,316.715 171.5,316.5C 172.167,321.833 172.833,327.167 173.5,332.5C 174.5,332.5 175.5,332.5 176.5,332.5C 176.617,336.249 177.284,339.916 178.5,343.5C 178.167,344.833 177.833,346.167 177.5,347.5C 176.548,345.955 176.215,344.288 176.5,342.5C 175.5,342.5 174.5,342.5 173.5,342.5C 172.833,339.167 172.167,335.833 171.5,332.5C 170.5,332.5 169.5,332.5 168.5,332.5C 168.5,330.833 168.5,329.167 168.5,327.5C 167.5,327.5 166.5,327.5 165.5,327.5C 164.627,323.879 163.961,320.212 163.5,316.5C 162.5,316.5 161.5,316.5 160.5,316.5C 159.833,313.167 159.167,309.833 158.5,306.5C 158.179,304.952 157.179,304.285 155.5,304.5C 155.5,303.5 155.5,302.5 155.5,301.5C 155.5,300.167 154.833,299.5 153.5,299.5C 153.5,298.5 153.5,297.5 153.5,296.5C 153.5,295.5 153.5,294.5 153.5,293.5C 152.5,293.5 151.5,293.5 150.5,293.5C 150.5,291.833 150.5,290.167 150.5,288.5C 149.5,288.5 148.5,288.5 147.5,288.5C 146.833,285.167 146.167,281.833 145.5,278.5C 144.5,278.5 143.5,278.5 142.5,278.5C 141.833,275.167 141.167,271.833 140.5,268.5C 139.5,268.5 138.5,268.5 137.5,268.5C 136.833,265.167 136.167,261.833 135.5,258.5C 134.5,258.5 133.5,258.5 132.5,258.5C 132.039,254.788 131.373,251.121 130.5,247.5C 129.5,247.5 128.5,247.5 127.5,247.5C 127.5,245.833 127.5,244.167 127.5,242.5C 126.5,242.5 125.5,242.5 124.5,242.5C 123.833,239.167 123.167,235.833 122.5,232.5C 121.5,232.5 120.5,232.5 119.5,232.5C 118.833,229.167 118.167,225.833 117.5,222.5C 116.5,222.5 115.5,222.5 114.5,222.5C 114.5,220.833 114.5,219.167 114.5,217.5C 114.715,215.821 114.048,214.821 112.5,214.5C 112.5,213.5 112.5,212.5 112.5,211.5C 112.179,209.952 111.179,209.285 109.5,209.5C 108.833,206.167 108.167,202.833 107.5,199.5C 106.5,199.5 105.5,199.5 104.5,199.5C 104.5,197.833 104.5,196.167 104.5,194.5C 103.5,194.5 102.5,194.5 101.5,194.5C 101.039,190.788 100.373,187.121 99.5,183.5C 98.5,183.5 97.5,183.5 96.5,183.5C 95.5443,178.908 94.8776,174.241 94.5,169.5C 94.8776,164.759 95.5443,160.092 96.5,155.5C 99.5,155.167 101.167,153.5 101.5,150.5C 102.5,150.5 103.5,150.5 104.5,150.5C 104.5,149.5 104.5,148.5 104.5,147.5C 105.5,147.5 106.5,147.5 107.5,147.5C 108.833,147.5 109.5,146.833 109.5,145.5C 110.5,145.5 111.5,145.5 112.5,145.5C 113.18,141.678 115.513,140.011 119.5,140.5C 119.5,145.5 119.5,150.5 119.5,155.5 Z M 68.5,176.5 C 69.5,176.5 70.5,176.5 71.5,176.5C 72.3263,181.474 72.9929,186.474 73.5,191.5C 74.5,191.5 75.5,191.5 76.5,191.5C 77.1667,194.833 77.8333,198.167 78.5,201.5C 79.5,201.5 80.5,201.5 81.5,201.5C 82.1667,204.833 82.8333,208.167 83.5,211.5C 84.5,211.5 85.5,211.5 86.5,211.5C 86.5,213.5 86.5,215.5 86.5,217.5C 87.5,217.5 88.5,217.5 89.5,217.5C 90.1667,220.833 90.8333,224.167 91.5,227.5C 92.5,227.5 93.5,227.5 94.5,227.5C 95.1667,230.833 95.8333,234.167 96.5,237.5C 97.5,237.5 98.5,237.5 99.5,237.5C 100.167,240.833 100.833,244.167 101.5,247.5C 101.5,248.5 101.5,249.5 101.5,250.5C 102.5,250.5 103.5,250.5 104.5,250.5C 104.5,251.167 104.5,251.833 104.5,252.5C 104.5,253.5 104.5,254.5 104.5,255.5C 105.5,255.5 106.5,255.5 107.5,255.5C 108.167,258.833 108.833,262.167 109.5,265.5C 110.5,265.5 111.5,265.5 112.5,265.5C 113.167,268.833 113.833,272.167 114.5,275.5C 115.5,275.5 116.5,275.5 117.5,275.5C 117.961,279.212 118.627,282.879 119.5,286.5C 120.5,286.5 121.5,286.5 122.5,286.5C 123.167,289.833 123.833,293.167 124.5,296.5C 125.5,296.5 126.5,296.5 127.5,296.5C 127.5,298.167 127.5,299.833 127.5,301.5C 128.5,301.5 129.5,301.5 130.5,301.5C 131.167,304.833 131.833,308.167 132.5,311.5C 133.5,311.5 134.5,311.5 135.5,311.5C 136.373,315.121 137.039,318.788 137.5,322.5C 138.5,322.5 139.5,322.5 140.5,322.5C 141.167,325.833 141.833,329.167 142.5,332.5C 142.821,334.048 143.821,334.715 145.5,334.5C 145.5,335.5 145.5,336.5 145.5,337.5C 145.5,338.833 146.167,339.5 147.5,339.5C 147.5,340.5 147.5,341.5 147.5,342.5C 147.5,343.5 147.5,344.5 147.5,345.5C 145.952,345.179 145.285,344.179 145.5,342.5C 144.5,342.5 143.5,342.5 142.5,342.5C 142.5,341.5 142.5,340.5 142.5,339.5C 142.5,338.167 141.833,337.5 140.5,337.5C 140.5,336.5 140.5,335.5 140.5,334.5C 138.821,334.715 137.821,334.048 137.5,332.5C 137.715,330.821 137.048,329.821 135.5,329.5C 135.179,327.952 134.179,327.285 132.5,327.5C 132.5,326.5 132.5,325.5 132.5,324.5C 132.5,323.167 131.833,322.5 130.5,322.5C 130.5,321.5 130.5,320.5 130.5,319.5C 129.5,319.5 128.5,319.5 127.5,319.5C 127.5,318.5 127.5,317.5 127.5,316.5C 126.5,316.5 125.5,316.5 124.5,316.5C 124.989,312.513 123.322,310.18 119.5,309.5C 119.307,306.692 118.64,304.025 117.5,301.5C 116.5,301.5 115.5,301.5 114.5,301.5C 114.307,298.692 113.64,296.025 112.5,293.5C 111.5,293.5 110.5,293.5 109.5,293.5C 109.989,289.513 108.322,287.18 104.5,286.5C 104.5,284.833 104.5,283.167 104.5,281.5C 103.5,281.5 102.5,281.5 101.5,281.5C 100.36,278.975 99.6933,276.308 99.5,273.5C 98.5,273.5 97.5,273.5 96.5,273.5C 95.36,270.975 94.6933,268.308 94.5,265.5C 91.5,265.167 89.8333,263.5 89.5,260.5C 89.1788,258.952 88.1788,258.285 86.5,258.5C 86.5,257.5 86.5,256.5 86.5,255.5C 85.5,255.5 84.5,255.5 83.5,255.5C 83.5,254.5 83.5,253.5 83.5,252.5C 83.5,251.167 82.8333,250.5 81.5,250.5C 81.5,249.5 81.5,248.5 81.5,247.5C 79.8212,247.715 78.8212,247.048 78.5,245.5C 78.7148,243.821 78.0481,242.821 76.5,242.5C 76.1788,240.952 75.1788,240.285 73.5,240.5C 72.36,237.975 71.6933,235.308 71.5,232.5C 70.5,232.5 69.5,232.5 68.5,232.5C 67.36,229.975 66.6933,227.308 66.5,224.5C 64.5,223.833 62.5,223.167 60.5,222.5C 60.3067,219.692 59.64,217.025 58.5,214.5C 57.5,214.5 56.5,214.5 55.5,214.5C 55.32,210.107 54.6533,205.774 53.5,201.5C 54.6533,197.226 55.32,192.893 55.5,188.5C 56.5,188.5 57.5,188.5 58.5,188.5C 58.0114,184.513 59.678,182.18 63.5,181.5C 63.5,180.5 63.5,179.5 63.5,178.5C 64.5,178.5 65.5,178.5 66.5,178.5C 67.8333,178.5 68.5,177.833 68.5,176.5 Z M 199.5,327.5 C 200.167,327.5 200.833,327.5 201.5,327.5C 200.833,336.833 200.167,336.833 199.5,327.5 Z M 201.5,342.5 C 202.5,342.5 203.5,342.5 204.5,342.5C 204.5,343.5 204.5,344.5 204.5,345.5C 203.5,345.5 202.5,345.5 201.5,345.5C 201.5,344.5 201.5,343.5 201.5,342.5 Z M 147.5,345.5 C 148.5,345.5 149.5,345.5 150.5,345.5C 150.5,347.167 150.5,348.833 150.5,350.5C 149.5,350.5 148.5,350.5 147.5,350.5C 147.5,348.833 147.5,347.167 147.5,345.5 Z M 150.5,350.5 C 151.675,350.281 152.675,350.614 153.5,351.5C 151.948,352.798 150.948,352.465 150.5,350.5 Z M 178.5,350.5 C 179.675,350.281 180.675,350.614 181.5,351.5C 179.948,352.798 178.948,352.465 178.5,350.5 Z M 153.5,355.5 C 155.337,355.639 155.67,356.306 154.5,357.5C 153.702,357.043 153.369,356.376 153.5,355.5 Z"/></g>
<g><path style="opacity:0.004" fill="#000000" d="M 222.5,71.5 C 222.179,73.0481 221.179,73.7148 219.5,73.5C 219.821,71.9519 220.821,71.2852 222.5,71.5 Z"/></g>
<g><path style="opacity:0.004" fill="#000000" d="M 194.5,78.5 C 194.5,79.5 194.5,80.5 194.5,81.5C 193.5,81.5 192.5,81.5 191.5,81.5C 191.5,80.5 191.5,79.5 191.5,78.5C 192.5,78.5 193.5,78.5 194.5,78.5 Z"/></g>
<g><path style="opacity:0.012" fill="#000000" d="M 265.5,81.5 C 265.5,82.8333 264.833,83.5 263.5,83.5C 263.5,82.1667 264.167,81.5 265.5,81.5 Z"/></g>
<g><path style="opacity:0.008" fill="#000000" d="M 176.5,83.5 C 176.5,84.5 176.5,85.5 176.5,86.5C 175.5,86.5 174.5,86.5 173.5,86.5C 173.5,85.5 173.5,84.5 173.5,83.5C 174.5,83.5 175.5,83.5 176.5,83.5 Z"/></g>
<g><path style="opacity:0.016" fill="#000000" d="M 258.5,83.5 C 258.5,84.5 258.5,85.5 258.5,86.5C 257.5,86.5 256.5,86.5 255.5,86.5C 255.5,85.5 255.5,84.5 255.5,83.5C 256.5,83.5 257.5,83.5 258.5,83.5 Z"/></g>
<g><path style="opacity:0.016" fill="#000000" d="M 452.5,89.5 C 454.179,89.2852 455.179,89.9519 455.5,91.5C 453.821,91.7148 452.821,91.0481 452.5,89.5 Z"/></g>
<g><path style="opacity:0.008" fill="#000000" d="M 147.5,94.5 C 147.5,95.8333 146.833,96.5 145.5,96.5C 145.5,95.1667 146.167,94.5 147.5,94.5 Z"/></g>
<g><path style="opacity:0.008" fill="#000000" d="M 245.5,96.5 C 245.5,97.5 245.5,98.5 245.5,99.5C 244.5,99.5 243.5,99.5 242.5,99.5C 242.5,98.5 242.5,97.5 242.5,96.5C 243.5,96.5 244.5,96.5 245.5,96.5 Z"/></g>
<g><path style="opacity:0.004" fill="#000000" d="M 455.5,96.5 C 457.048,96.8212 457.715,97.8212 457.5,99.5C 455.952,99.1788 455.285,98.1788 455.5,96.5 Z"/></g>
<g><path style="opacity:0.008" fill="#000000" d="M 201.5,107.5 C 201.5,108.833 200.833,109.5 199.5,109.5C 199.5,108.167 200.167,107.5 201.5,107.5 Z"/></g>
<g><path style="opacity:0.008" fill="#000000" d="M 122.5,109.5 C 122.5,110.5 122.5,111.5 122.5,112.5C 121.5,112.5 120.5,112.5 119.5,112.5C 119.5,111.5 119.5,110.5 119.5,109.5C 120.5,109.5 121.5,109.5 122.5,109.5 Z"/></g>
<g><path style="opacity:0.008" fill="#000000" d="M 199.5,109.5 C 199.5,110.5 199.5,111.5 199.5,112.5C 198.5,112.5 197.5,112.5 196.5,112.5C 196.5,111.5 196.5,110.5 196.5,109.5C 197.5,109.5 198.5,109.5 199.5,109.5 Z"/></g>
<g><path style="opacity:0.016" fill="#000000" d="M 168.5,112.5 C 172.5,113.167 172.5,113.833 168.5,114.5C 168.5,113.833 168.5,113.167 168.5,112.5 Z"/></g>
<g><path style="opacity:0.008" fill="#000000" d="M 153.5,119.5 C 153.5,120.5 153.5,121.5 153.5,122.5C 152.5,122.5 151.5,122.5 150.5,122.5C 150.5,121.5 150.5,120.5 150.5,119.5C 151.5,119.5 152.5,119.5 153.5,119.5 Z"/></g>
<g><path style="opacity:0.008" fill="#000000" d="M 99.5,122.5 C 99.1788,124.048 98.1788,124.715 96.5,124.5C 96.8212,122.952 97.8212,122.285 99.5,122.5 Z"/></g>
<g><path style="opacity:0.004" fill="#000000" d="M 109.5,145.5 C 109.5,146.833 108.833,147.5 107.5,147.5C 107.5,146.167 108.167,145.5 109.5,145.5 Z"/></g>
<g><path style="opacity:0.004" fill="#000000" d="M 168.5,147.5 C 169.5,147.5 170.5,147.5 171.5,147.5C 171.5,148.5 171.5,149.5 171.5,150.5C 171.5,149.5 171.5,148.5 171.5,147.5C 170.5,147.5 169.5,147.5 168.5,147.5 Z"/></g>
<g><path style="opacity:0.008" fill="#000000" d="M 142.5,150.5 C 143.5,150.5 144.5,150.5 145.5,150.5C 145.5,151.5 145.5,152.5 145.5,153.5C 144.5,153.5 143.5,153.5 142.5,153.5C 142.5,152.5 142.5,151.5 142.5,150.5 Z"/></g>
<g><path style="opacity:0.012" fill="#000000" d="M 119.5,155.5 C 120.5,155.5 121.5,155.5 122.5,155.5C 122.5,156.5 122.5,157.5 122.5,158.5C 122.5,157.5 122.5,156.5 122.5,155.5C 121.5,155.5 120.5,155.5 119.5,155.5 Z"/></g>
<g><path style="opacity:0.009" fill="#000000" d="M 240.5,168.5 C 242.256,169.552 242.923,171.219 242.5,173.5C 240.744,172.448 240.077,170.781 240.5,168.5 Z"/></g>
<g><path style="opacity:0.004" fill="#000000" d="M 40.5,171.5 C 40.1788,173.048 39.1788,173.715 37.5,173.5C 37.8212,171.952 38.8212,171.285 40.5,171.5 Z"/></g>
<g><path style="opacity:0.008" fill="#000000" d="M 196.5,173.5 C 197.5,173.5 198.5,173.5 199.5,173.5C 199.5,174.5 199.5,175.5 199.5,176.5C 198.5,176.5 197.5,176.5 196.5,176.5C 196.5,175.5 196.5,174.5 196.5,173.5 Z"/></g>
<g><path style="opacity:0.004" fill="#000000" d="M 68.5,176.5 C 68.5,177.833 67.8333,178.5 66.5,178.5C 66.5,177.167 67.1667,176.5 68.5,176.5 Z"/></g>
<g><path style="opacity:0.012" fill="#000000" d="M 35.5,181.5 C 35.1788,183.048 34.1788,183.715 32.5,183.5C 32.8212,181.952 33.8212,181.285 35.5,181.5 Z"/></g>
<g><path style="opacity:0.008" fill="#000000" d="M 217.5,181.5 C 218.833,181.5 219.5,182.167 219.5,183.5C 219.5,182.167 218.833,181.5 217.5,181.5 Z"/></g>
<g><path style="opacity:0.004" fill="#000000" d="M 153.5,183.5 C 155.048,183.821 155.715,184.821 155.5,186.5C 153.952,186.179 153.285,185.179 153.5,183.5 Z"/></g>
<g><path style="opacity:0.016" fill="#000000" d="M 130.5,188.5 C 132.048,188.821 132.715,189.821 132.5,191.5C 130.952,191.179 130.285,190.179 130.5,188.5 Z"/></g>
<g><path style="opacity:0.004" fill="#000000" d="M 457.5,201.5 C 458.5,201.5 459.5,201.5 460.5,201.5C 460.5,202.5 460.5,203.5 460.5,204.5C 460.5,203.5 460.5,202.5 460.5,201.5C 459.5,201.5 458.5,201.5 457.5,201.5 Z"/></g>
<g><path style="opacity:0.008" fill="#000000" d="M 178.5,206.5 C 179.5,206.5 180.5,206.5 181.5,206.5C 181.5,207.5 181.5,208.5 181.5,209.5C 181.5,208.5 181.5,207.5 181.5,206.5C 180.5,206.5 179.5,206.5 178.5,206.5 Z"/></g>
<g><path style="opacity:0.004" fill="#000000" d="M 30.5,209.5 C 31.8333,209.5 32.5,210.167 32.5,211.5C 31.1667,211.5 30.5,210.833 30.5,209.5 Z"/></g>
<g><path style="opacity:0.012" fill="#000000" d="M 109.5,209.5 C 111.179,209.285 112.179,209.952 112.5,211.5C 110.821,211.715 109.821,211.048 109.5,209.5 Z"/></g>
<g><path style="opacity:0.004" fill="#000000" d="M 112.5,214.5 C 114.048,214.821 114.715,215.821 114.5,217.5C 112.952,217.179 112.285,216.179 112.5,214.5 Z"/></g>
<g><path style="opacity:0.008" fill="#000000" d="M 434.5,217.5 C 436.179,217.285 437.179,217.952 437.5,219.5C 435.821,219.715 434.821,219.048 434.5,217.5 Z"/></g>
<g><path style="opacity:0.004" fill="#000000" d="M 40.5,232.5 C 41.5,232.5 42.5,232.5 43.5,232.5C 43.5,233.5 43.5,234.5 43.5,235.5C 42.5,235.5 41.5,235.5 40.5,235.5C 40.5,234.5 40.5,233.5 40.5,232.5 Z"/></g>
<g><path style="opacity:0.008" fill="#000000" d="M 206.5,232.5 C 207.5,232.5 208.5,232.5 209.5,232.5C 209.5,233.5 209.5,234.5 209.5,235.5C 208.5,235.5 207.5,235.5 206.5,235.5C 206.5,234.5 206.5,233.5 206.5,232.5 Z"/></g>
<g><path style="opacity:0.004" fill="#000000" d="M 76.5,242.5 C 78.0481,242.821 78.7148,243.821 78.5,245.5C 76.9519,245.179 76.2852,244.179 76.5,242.5 Z"/></g>
<g><path style="opacity:0.012" fill="#000000" d="M 171.5,242.5 C 173.048,242.821 173.715,243.821 173.5,245.5C 171.952,245.179 171.285,244.179 171.5,242.5 Z"/></g>
<g><path style="opacity:0.004" fill="#000000" d="M 101.5,247.5 C 102.5,247.5 103.5,247.5 104.5,247.5C 104.5,248.5 104.5,249.5 104.5,250.5C 104.5,249.5 104.5,248.5 104.5,247.5C 103.5,247.5 102.5,247.5 101.5,247.5 Z"/></g>
<g><path style="opacity:0.004" fill="#000000" d="M 147.5,247.5 C 148.5,247.5 149.5,247.5 150.5,247.5C 150.5,248.5 150.5,249.5 150.5,250.5C 150.5,249.5 150.5,248.5 150.5,247.5C 149.5,247.5 148.5,247.5 147.5,247.5 Z"/></g>
<g><path style="opacity:0.008" fill="#000000" d="M 81.5,250.5 C 82.8333,250.5 83.5,251.167 83.5,252.5C 82.1667,252.5 81.5,251.833 81.5,250.5 Z"/></g>
<g><path style="opacity:0.012" fill="#000000" d="M 104.5,252.5 C 105.5,252.5 106.5,252.5 107.5,252.5C 107.5,253.5 107.5,254.5 107.5,255.5C 107.5,254.5 107.5,253.5 107.5,252.5C 106.5,252.5 105.5,252.5 104.5,252.5 Z"/></g>
<g><path style="opacity:0.012" fill="#000000" d="M 86.5,258.5 C 88.1788,258.285 89.1788,258.952 89.5,260.5C 87.8212,260.715 86.8212,260.048 86.5,258.5 Z"/></g>
<g><path style="opacity:0.012" fill="#000000" d="M 188.5,265.5 C 189.5,265.5 190.5,265.5 191.5,265.5C 191.5,266.5 191.5,267.5 191.5,268.5C 191.5,267.5 191.5,266.5 191.5,265.5C 190.5,265.5 189.5,265.5 188.5,265.5 Z"/></g>
<g><path style="opacity:0.008" fill="#000000" d="M 181.5,275.5 C 183.048,275.821 183.715,276.821 183.5,278.5C 181.952,278.179 181.285,277.179 181.5,275.5 Z"/></g>
<g><path style="opacity:0.008" fill="#000000" d="M 158.5,281.5 C 159.833,281.5 160.5,282.167 160.5,283.5C 160.5,282.167 159.833,281.5 158.5,281.5 Z"/></g>
<g><path style="opacity:0.008" fill="#000000" d="M 217.5,291.5 C 218.167,291.5 218.833,291.5 219.5,291.5C 218.833,294.167 218.167,294.167 217.5,291.5 Z"/></g>
<g><path style="opacity:0.016" fill="#000000" d="M 150.5,293.5 C 151.5,293.5 152.5,293.5 153.5,293.5C 153.5,294.5 153.5,295.5 153.5,296.5C 152.5,296.5 151.5,296.5 150.5,296.5C 150.5,295.5 150.5,294.5 150.5,293.5 Z"/></g>
<g><path style="opacity:0.016" fill="#000000" d="M 83.5,296.5 C 84.5,296.5 85.5,296.5 86.5,296.5C 86.5,297.5 86.5,298.5 86.5,299.5C 85.5,299.5 84.5,299.5 83.5,299.5C 83.5,298.5 83.5,297.5 83.5,296.5 Z"/></g>
<g><path style="opacity:0.008" fill="#000000" d="M 153.5,299.5 C 154.833,299.5 155.5,300.167 155.5,301.5C 154.167,301.5 153.5,300.833 153.5,299.5 Z"/></g>
<g><path style="opacity:0.008" fill="#000000" d="M 89.5,304.5 C 90.8333,304.5 91.5,305.167 91.5,306.5C 90.1667,306.5 89.5,305.833 89.5,304.5 Z"/></g>
<g><path style="opacity:0.004" fill="#000000" d="M 155.5,304.5 C 157.179,304.285 158.179,304.952 158.5,306.5C 156.821,306.715 155.821,306.048 155.5,304.5 Z"/></g>
<g><path style="opacity:0.004" fill="#000000" d="M 191.5,309.5 C 193.179,309.285 194.179,309.952 194.5,311.5C 192.821,311.715 191.821,311.048 191.5,309.5 Z"/></g>
<g><path style="opacity:0.004" fill="#000000" d="M 94.5,311.5 C 96.0481,311.821 96.7148,312.821 96.5,314.5C 94.9519,314.179 94.2852,313.179 94.5,311.5 Z"/></g>
<g><path style="opacity:0.016" fill="#000000" d="M 168.5,314.5 C 170.179,314.285 171.179,314.952 171.5,316.5C 169.821,316.715 168.821,316.048 168.5,314.5 Z"/></g>
<g><path style="opacity:0.004" fill="#000000" d="M 130.5,322.5 C 131.833,322.5 132.5,323.167 132.5,324.5C 131.167,324.5 130.5,323.833 130.5,322.5 Z"/></g>
<g><path style="opacity:0.016" fill="#000000" d="M 199.5,324.5 C 201.048,324.821 201.715,325.821 201.5,327.5C 200.833,327.5 200.167,327.5 199.5,327.5C 199.5,326.5 199.5,325.5 199.5,324.5 Z"/></g>
<g><path style="opacity:0.008" fill="#000000" d="M 135.5,329.5 C 137.048,329.821 137.715,330.821 137.5,332.5C 135.952,332.179 135.285,331.179 135.5,329.5 Z"/></g>
<g><path style="opacity:0.004" fill="#000000" d="M 142.5,332.5 C 144.179,332.285 145.179,332.952 145.5,334.5C 143.821,334.715 142.821,334.048 142.5,332.5 Z"/></g>
<g><path style="opacity:0.012" fill="#000000" d="M 140.5,337.5 C 141.833,337.5 142.5,338.167 142.5,339.5C 141.167,339.5 140.5,338.833 140.5,337.5 Z"/></g>
<g><path style="opacity:0.008" fill="#000000" d="M 145.5,337.5 C 146.833,337.5 147.5,338.167 147.5,339.5C 147.5,338.167 146.833,337.5 145.5,337.5 Z"/></g>
<g><path style="opacity:0.004" fill="#000000" d="M 204.5,342.5 C 203.5,342.5 202.5,342.5 201.5,342.5C 201.5,341.5 201.5,340.5 201.5,339.5C 202.5,339.5 203.5,339.5 204.5,339.5C 204.5,340.5 204.5,341.5 204.5,342.5 Z"/></g>
<g><path style="opacity:0.012" fill="#000000" d="M 147.5,342.5 C 148.5,342.5 149.5,342.5 150.5,342.5C 150.5,343.5 150.5,344.5 150.5,345.5C 149.5,345.5 148.5,345.5 147.5,345.5C 147.5,344.5 147.5,343.5 147.5,342.5 Z"/></g>
<g><path style="opacity:0.004" fill="#000000" d="M 247.5,360.5 C 248.5,360.5 249.5,360.5 250.5,360.5C 250.5,361.5 250.5,362.5 250.5,363.5C 249.5,363.5 248.5,363.5 247.5,363.5C 247.5,362.5 247.5,361.5 247.5,360.5 Z"/></g>
<g><path style="opacity:0.004" fill="#000000" d="M 432.5,360.5 C 432.5,361.5 432.5,362.5 432.5,363.5C 431.5,363.5 430.5,363.5 429.5,363.5C 429.5,362.5 429.5,361.5 429.5,360.5C 430.5,360.5 431.5,360.5 432.5,360.5 Z"/></g>
<g><path style="opacity:0.008" fill="#000000" d="M 260.5,370.5 C 261.5,370.5 262.5,370.5 263.5,370.5C 263.5,371.5 263.5,372.5 263.5,373.5C 262.5,373.5 261.5,373.5 260.5,373.5C 260.5,372.5 260.5,371.5 260.5,370.5 Z"/></g>
<g><path style="opacity:0.016" fill="#000000" d="M 137.5,375.5 C 138.5,375.5 139.5,375.5 140.5,375.5C 140.5,376.5 140.5,377.5 140.5,378.5C 139.5,378.5 138.5,378.5 137.5,378.5C 137.5,377.5 137.5,376.5 137.5,375.5 Z"/></g>
<g><path style="opacity:0.008" fill="#000000" d="M 142.5,383.5 C 143.5,383.5 144.5,383.5 145.5,383.5C 145.5,384.5 145.5,385.5 145.5,386.5C 144.5,386.5 143.5,386.5 142.5,386.5C 142.5,385.5 142.5,384.5 142.5,383.5 Z"/></g>
<g><path style="opacity:0.004" fill="#000000" d="M 147.5,391.5 C 149.179,391.285 150.179,391.952 150.5,393.5C 148.821,393.715 147.821,393.048 147.5,391.5 Z"/></g>
<g><path style="opacity:0.008" fill="#000000" d="M 378.5,398.5 C 380.048,398.821 380.715,399.821 380.5,401.5C 378.952,401.179 378.285,400.179 378.5,398.5 Z"/></g>
<g><path style="opacity:0.008" fill="#000000" d="M 419.5,398.5 C 419.5,399.5 419.5,400.5 419.5,401.5C 418.5,401.5 417.5,401.5 416.5,401.5C 416.5,400.5 416.5,399.5 416.5,398.5C 417.5,398.5 418.5,398.5 419.5,398.5 Z"/></g>
<g><path style="opacity:0.008" fill="#000000" d="M 304.5,403.5 C 304.5,404.5 304.5,405.5 304.5,406.5C 303.5,406.5 302.5,406.5 301.5,406.5C 301.5,405.5 301.5,404.5 301.5,403.5C 302.5,403.5 303.5,403.5 304.5,403.5 Z"/></g>
<g><path style="opacity:0.016" fill="#000000" d="M 278.5,411.5 C 278.5,412.5 278.5,413.5 278.5,414.5C 277.5,414.5 276.5,414.5 275.5,414.5C 275.5,413.5 275.5,412.5 275.5,411.5C 276.5,411.5 277.5,411.5 278.5,411.5 Z"/></g>
<g><path style="opacity:0.004" fill="#000000" d="M 268.5,419.5 C 268.179,421.048 267.179,421.715 265.5,421.5C 265.821,419.952 266.821,419.285 268.5,419.5 Z"/></g>
<g><path style="opacity:0.004" fill="#000000" d="M 183.5,437.5 C 185.179,437.285 186.179,437.952 186.5,439.5C 184.821,439.715 183.821,439.048 183.5,437.5 Z"/></g>
<g><path style="opacity:0.004" fill="#000000" d="M 194.5,442.5 C 195.833,442.5 196.5,443.167 196.5,444.5C 195.167,444.5 194.5,443.833 194.5,442.5 Z"/></g>
<g><path style="opacity:0.008" fill="#000000" d="M 204.5,444.5 C 206.048,444.821 206.715,445.821 206.5,447.5C 204.952,447.179 204.285,446.179 204.5,444.5 Z"/></g>
</svg>
