<?xml version="1.0" encoding="UTF-8"?>
<!DOCTYPE svg PUBLIC "-//W3C//DTD SVG 1.1//EN" "http://www.w3.org/Graphics/SVG/1.1/DTD/svg11.dtd">
<svg xmlns="http://www.w3.org/2000/svg" version="1.1" width="512px" height="512px" style="shape-rendering:geometricPrecision; text-rendering:geometricPrecision; image-rendering:optimizeQuality; fill-rule:evenodd; clip-rule:evenodd" xmlns:xlink="http://www.w3.org/1999/xlink">
<g><path style="opacity:1" fill="#fefffe" d="M 299.5,31.5 C 309.289,30.3052 315.789,34.3052 319,43.5C 324.409,74.6452 314.576,99.4785 289.5,118C 283.274,121.78 276.607,124.447 269.5,126C 241.874,127.29 214.207,127.957 186.5,128C 172,131.167 163.167,140 160,154.5C 159.5,161.492 159.334,168.492 159.5,175.5C 148.833,175.5 138.167,175.5 127.5,175.5C 123.97,149.584 131.637,127.75 150.5,110C 159.939,102.616 170.605,97.9492 182.5,96C 208.5,95.6667 234.5,95.3333 260.5,95C 273.087,92.0771 281.587,84.5771 286,72.5C 286.973,61.8187 287.973,51.152 289,40.5C 291.489,36.1675 294.989,33.1675 299.5,31.5 Z"/></g>
<g><path style="opacity:1" fill="#fefffe" d="M 57.5,191.5 C 189.5,191.333 321.5,191.5 453.5,192C 467.333,195.167 475.833,203.667 479,217.5C 479.667,285.5 479.667,353.5 479,421.5C 475.833,435.333 467.333,443.833 453.5,447C 321.5,447.667 189.5,447.667 57.5,447C 43.6667,443.833 35.1667,435.333 32,421.5C 31.3333,353.5 31.3333,285.5 32,217.5C 35.3482,203.653 43.8482,194.986 57.5,191.5 Z M 76.5,223.5 C 83.8409,223.334 91.1742,223.5 98.5,224C 105.333,225.5 109.5,229.667 111,236.5C 116.833,265.333 105.333,276.833 76.5,271C 69.6667,269.5 65.5,265.333 64,258.5C 63.3333,251.167 63.3333,243.833 64,236.5C 65.6823,229.653 69.849,225.32 76.5,223.5 Z M 140.5,223.5 C 147.841,223.334 155.174,223.5 162.5,224C 169.333,225.5 173.5,229.667 175,236.5C 180.833,265.333 169.333,276.833 140.5,271C 133.667,269.5 129.5,265.333 128,258.5C 127.333,251.167 127.333,243.833 128,236.5C 129.682,229.653 133.849,225.32 140.5,223.5 Z M 204.5,223.5 C 211.841,223.334 219.174,223.5 226.5,224C 233.333,225.5 237.5,229.667 239,236.5C 244.833,265.333 233.333,276.833 204.5,271C 197.667,269.5 193.5,265.333 192,258.5C 191.333,251.167 191.333,243.833 192,236.5C 193.682,229.653 197.849,225.32 204.5,223.5 Z M 268.5,223.5 C 275.841,223.334 283.174,223.5 290.5,224C 297.333,225.5 301.5,229.667 303,236.5C 308.833,265.333 297.333,276.833 268.5,271C 261.667,269.5 257.5,265.333 256,258.5C 255.333,251.167 255.333,243.833 256,236.5C 257.682,229.653 261.849,225.32 268.5,223.5 Z M 332.5,223.5 C 339.841,223.334 347.174,223.5 354.5,224C 361.333,225.5 365.5,229.667 367,236.5C 372.833,265.333 361.333,276.833 332.5,271C 325.667,269.5 321.5,265.333 320,258.5C 319.333,251.167 319.333,243.833 320,236.5C 321.682,229.653 325.849,225.32 332.5,223.5 Z M 396.5,223.5 C 409.171,223.333 421.838,223.5 434.5,224C 440.159,224.996 443.993,228.162 446,233.5C 447.643,263.105 447.976,292.772 447,322.5C 446.004,328.159 442.838,331.993 437.5,334C 429.245,335.572 420.911,335.905 412.5,335C 406.841,334.004 403.007,330.838 401,325.5C 399.713,309.9 399.046,294.234 399,278.5C 398,276.5 397,274.5 396,272.5C 386.012,267.192 381.846,258.858 383.5,247.5C 381.654,235.842 385.987,227.842 396.5,223.5 Z M 76.5,287.5 C 89.1711,287.333 101.838,287.5 114.5,288C 121.333,289.5 125.5,293.667 127,300.5C 127.667,307.833 127.667,315.167 127,322.5C 125.5,329.333 121.333,333.5 114.5,335C 101.833,335.667 89.1667,335.667 76.5,335C 69.6667,333.5 65.5,329.333 64,322.5C 63.3333,315.167 63.3333,307.833 64,300.5C 65.6823,293.653 69.849,289.32 76.5,287.5 Z M 156.5,287.5 C 163.841,287.334 171.174,287.5 178.5,288C 185.333,289.5 189.5,293.667 191,300.5C 196.833,329.333 185.333,340.833 156.5,335C 149.667,333.5 145.5,329.333 144,322.5C 143.333,315.167 143.333,307.833 144,300.5C 145.682,293.653 149.849,289.32 156.5,287.5 Z M 220.5,287.5 C 227.841,287.334 235.174,287.5 242.5,288C 249.333,289.5 253.5,293.667 255,300.5C 260.833,329.333 249.333,340.833 220.5,335C 213.667,333.5 209.5,329.333 208,322.5C 207.333,315.167 207.333,307.833 208,300.5C 209.682,293.653 213.849,289.32 220.5,287.5 Z M 284.5,287.5 C 291.841,287.334 299.174,287.5 306.5,288C 313.333,289.5 317.5,293.667 319,300.5C 324.833,329.333 313.333,340.833 284.5,335C 277.667,333.5 273.5,329.333 272,322.5C 271.333,315.167 271.333,307.833 272,300.5C 273.682,293.653 277.849,289.32 284.5,287.5 Z M 348.5,287.5 C 355.841,287.334 363.174,287.5 370.5,288C 377.333,289.5 381.5,293.667 383,300.5C 388.833,329.333 377.333,340.833 348.5,335C 341.667,333.5 337.5,329.333 336,322.5C 335.333,315.167 335.333,307.833 336,300.5C 337.682,293.653 341.849,289.32 348.5,287.5 Z M 76.5,351.5 C 94.5031,351.333 112.503,351.5 130.5,352C 137.333,353.5 141.5,357.667 143,364.5C 143.667,371.833 143.667,379.167 143,386.5C 141.5,393.333 137.333,397.5 130.5,399C 112.5,399.667 94.5,399.667 76.5,399C 69.6667,397.5 65.5,393.333 64,386.5C 63.3333,379.167 63.3333,371.833 64,364.5C 65.6823,357.653 69.849,353.32 76.5,351.5 Z M 172.5,351.5 C 227.834,351.333 283.168,351.5 338.5,352C 344.159,352.996 347.993,356.162 350,361.5C 351.572,369.755 351.905,378.089 351,386.5C 349.5,393.333 345.333,397.5 338.5,399C 283.167,399.667 227.833,399.667 172.5,399C 165.667,397.5 161.5,393.333 160,386.5C 159.333,379.167 159.333,371.833 160,364.5C 161.682,357.653 165.849,353.32 172.5,351.5 Z M 380.5,351.5 C 398.503,351.333 416.503,351.5 434.5,352C 441.333,353.5 445.5,357.667 447,364.5C 447.667,371.833 447.667,379.167 447,386.5C 445.5,393.333 441.333,397.5 434.5,399C 416.5,399.667 398.5,399.667 380.5,399C 373.667,397.5 369.5,393.333 368,386.5C 367.333,379.167 367.333,371.833 368,364.5C 369.682,357.653 373.849,353.32 380.5,351.5 Z"/></g>
</svg>
