<?xml version="1.0" encoding="UTF-8"?>
<!DOCTYPE svg PUBLIC "-//W3C//DTD SVG 1.1//EN" "http://www.w3.org/Graphics/SVG/1.1/DTD/svg11.dtd">
<svg xmlns="http://www.w3.org/2000/svg" version="1.1" width="1213px" height="2048px" style="shape-rendering:geometricPrecision; text-rendering:geometricPrecision; image-rendering:optimizeQuality; fill-rule:evenodd; clip-rule:evenodd" xmlns:xlink="http://www.w3.org/1999/xlink">
<g><path style="opacity:0.994" fill="#fefefe" d="M 566.5,-0.5 C 593.167,-0.5 619.833,-0.5 646.5,-0.5C 820.484,14.4022 963.65,88.0689 1076,220.5C 1157.55,321.664 1203.05,437.331 1212.5,567.5C 1212.5,591.5 1212.5,615.5 1212.5,639.5C 1206.96,698.294 1191.13,754.294 1165,807.5C 1144,850.167 1123,892.833 1102,935.5C 1093.28,954.334 1084.94,973.334 1077,992.5C 1028.72,1141.33 982.055,1290.67 937,1440.5C 932.63,1453.54 923.796,1461.71 910.5,1465C 707.5,1465.67 504.5,1465.67 301.5,1465C 286.6,1461.1 277.434,1451.6 274,1436.5C 239.825,1301.13 203.158,1166.46 164,1032.5C 161.586,1024.93 158.586,1017.59 155,1010.5C 128.203,967.021 102.203,923.021 77,878.5C 58.5558,845.28 42.5558,810.946 29,775.5C 13.4363,731.264 3.60298,685.93 -0.5,639.5C -0.5,615.167 -0.5,590.833 -0.5,566.5C 12.7405,403.197 79.0738,266.03 198.5,155C 303.28,61.8022 425.946,9.96886 566.5,-0.5 Z M 583.5,70.5 C 749.223,67.4271 888.723,125.76 1002,245.5C 1105.62,362.357 1150.95,499.024 1138,655.5C 1131.9,695.229 1120.24,733.229 1103,769.5C 1082.33,811.5 1061.67,853.5 1041,895.5C 1029.51,919.482 1018.84,943.815 1009,968.5C 963.19,1109.76 918.69,1251.43 875.5,1393.5C 797.599,1394.83 719.765,1394.83 642,1393.5C 641.5,1275.5 641.333,1157.5 641.5,1039.5C 700.834,1039.67 760.168,1039.5 819.5,1039C 841.161,1032.53 850.328,1018.03 847,995.5C 842.382,978.431 831.215,969.265 813.5,968C 675.167,967.333 536.833,967.333 398.5,968C 376.853,970.312 365.52,982.312 364.5,1004C 364.705,1020.87 372.705,1032.2 388.5,1038C 449.121,1039.48 509.788,1039.98 570.5,1039.5C 570.667,1157.5 570.5,1275.5 570,1393.5C 492.571,1394.5 415.071,1394.83 337.5,1394.5C 306.852,1273.24 274.019,1152.58 239,1032.5C 232.908,1011.56 225.242,991.223 216,971.5C 186.072,923.321 157.405,874.321 130,824.5C 66.5273,707.984 53.5273,585.984 91,458.5C 137.47,307.039 231.303,195.539 372.5,124C 439.345,92.0028 509.678,74.1694 583.5,70.5 Z"/></g>
<g><path style="opacity:0.991" fill="#fefefe" d="M 523.5,1490.5 C 544.413,1488.86 558.247,1497.86 565,1517.5C 568.022,1535.95 561.522,1549.78 545.5,1559C 476.62,1573.84 407.62,1588.18 338.5,1602C 312.055,1604.63 297.389,1592.79 294.5,1566.5C 295.261,1551.58 302.261,1540.75 315.5,1534C 384.891,1519.16 454.224,1504.66 523.5,1490.5 Z"/></g>
<g><path style="opacity:0.992" fill="#fefefe" d="M 876.5,1528.5 C 896.985,1527.15 910.485,1536.15 917,1555.5C 920.368,1576.95 911.868,1591.12 891.5,1598C 706.89,1638.26 522.223,1678.26 337.5,1718C 307.293,1719.79 293.126,1705.63 295,1675.5C 298.491,1661.34 307.324,1652.51 321.5,1649C 506.727,1609.26 691.727,1569.09 876.5,1528.5 Z"/></g>
<g><path style="opacity:0.991" fill="#fefefe" d="M 875.5,1644.5 C 888.639,1643.24 899.805,1647.24 909,1656.5C 920.972,1673.99 920.139,1690.83 906.5,1707C 902.828,1709.84 898.828,1712.17 894.5,1714C 823.798,1729.14 752.965,1743.64 682,1757.5C 659.845,1755.51 648.012,1743.51 646.5,1721.5C 646.179,1705.31 653.512,1694.14 668.5,1688C 737.632,1673.54 806.632,1659.04 875.5,1644.5 Z"/></g>
<g><path style="opacity:0.995" fill="#fefefe" d="M 637.5,2047.5 C 616.167,2047.5 594.833,2047.5 573.5,2047.5C 513.041,2042.8 456.708,2024.97 404.5,1994C 363.591,1969.09 332.424,1935.26 311,1892.5C 298.21,1865.22 292.877,1836.55 295,1806.5C 298.719,1794.88 306.552,1787.72 318.5,1785C 510.167,1784.33 701.833,1784.33 893.5,1785C 907.454,1787.95 915.621,1796.45 918,1810.5C 918.5,1856 904.834,1896.67 877,1932.5C 842.989,1973.16 801.156,2002.99 751.5,2022C 714.522,2035.69 676.522,2044.19 637.5,2047.5 Z M 845.5,1866.5 C 828.97,1898.2 805.304,1923.37 774.5,1942C 714.776,1976.35 650.443,1991.01 581.5,1986C 530.705,1982.81 483.372,1968.47 439.5,1943C 411.333,1925.5 388.5,1902.67 371,1874.5C 367.451,1866.74 363.951,1859.08 360.5,1851.5C 360.643,1849.74 360.309,1848.07 359.5,1846.5C 523.832,1845.5 688.165,1845.17 852.5,1845.5C 850.769,1852.69 848.436,1859.69 845.5,1866.5 Z"/></g>
<g><path style="opacity:0.678" fill="#e7e7e7" d="M 845.5,1866.5 C 848.436,1859.69 850.769,1852.69 852.5,1845.5C 688.165,1845.17 523.832,1845.5 359.5,1846.5C 360.309,1848.07 360.643,1849.74 360.5,1851.5C 359.076,1849.49 358.41,1847.15 358.5,1844.5C 523.835,1844.17 689.168,1844.5 854.5,1845.5C 852.952,1850.93 851.119,1856.26 849,1861.5C 848.136,1864.11 846.97,1865.78 845.5,1866.5 Z"/></g>
</svg>
