<?xml version="1.0" encoding="UTF-8"?>
<!DOCTYPE svg PUBLIC "-//W3C//DTD SVG 1.1//EN" "http://www.w3.org/Graphics/SVG/1.1/DTD/svg11.dtd">
<svg xmlns="http://www.w3.org/2000/svg" version="1.1" width="1213px" height="2048px" style="shape-rendering:geometricPrecision; text-rendering:geometricPrecision; image-rendering:optimizeQuality; fill-rule:evenodd; clip-rule:evenodd" xmlns:xlink="http://www.w3.org/1999/xlink">
<g><path style="opacity:0.997" fill="#fefefe" d="M 566.5,-0.5 C 593.167,-0.5 619.833,-0.5 646.5,-0.5C 820.484,14.4022 963.65,88.0689 1076,220.5C 1157.55,321.664 1203.05,437.331 1212.5,567.5C 1212.5,591.5 1212.5,615.5 1212.5,639.5C 1206.96,698.294 1191.13,754.294 1165,807.5C 1144,850.167 1123,892.833 1102,935.5C 1093.28,954.334 1084.94,973.334 1077,992.5C 1028.72,1141.33 982.055,1290.67 937,1440.5C 932.63,1453.54 923.796,1461.71 910.5,1465C 707.5,1465.67 504.5,1465.67 301.5,1465C 286.6,1461.1 277.434,1451.6 274,1436.5C 239.825,1301.13 203.158,1166.46 164,1032.5C 161.586,1024.93 158.586,1017.59 155,1010.5C 128.203,967.021 102.203,923.021 77,878.5C 58.5558,845.28 42.5558,810.946 29,775.5C 13.4363,731.264 3.60298,685.93 -0.5,639.5C -0.5,615.167 -0.5,590.833 -0.5,566.5C 12.7405,403.197 79.0738,266.03 198.5,155C 303.28,61.8022 425.946,9.96886 566.5,-0.5 Z"/></g>
<g><path style="opacity:1" fill="#ffd68c" d="M 876.5,1394.5 C 798.167,1394.5 719.833,1394.5 641.5,1394.5C 641.5,1275.83 641.5,1157.17 641.5,1038.5C 700.834,1038.67 760.168,1038.5 819.5,1038C 845.174,1027.73 852.341,1009.9 841,984.5C 835.59,976.538 828.09,971.705 818.5,970C 676.833,969.333 535.167,969.333 393.5,970C 378.388,973.112 369.221,982.279 366,997.5C 364.258,1017.53 372.758,1031.03 391.5,1038C 451.166,1038.5 510.832,1038.67 570.5,1038.5C 570.5,1157.17 570.5,1275.83 570.5,1394.5C 492.5,1394.5 414.5,1394.5 336.5,1394.5C 313.726,1307.83 290.56,1221.16 267,1134.5C 254.657,1089.14 241.324,1044.14 227,999.5C 223.973,991.417 220.64,983.417 217,975.5C 187.104,928.226 158.77,879.893 132,830.5C 114.948,798.844 100.615,766.177 89,732.5C 66.3664,654.972 63.3664,576.639 80,497.5C 116.433,337.818 205.6,216.985 347.5,135C 473.524,68.3727 605.857,52.3727 744.5,87C 910.925,135.399 1029.76,238.899 1101,397.5C 1136.12,481.03 1148.79,568.03 1139,658.5C 1134.98,684.921 1128.31,710.588 1119,735.5C 1099.51,779.498 1078.51,823.165 1056,866.5C 1042.17,896.232 1028.51,925.899 1015,955.5C 1005.54,984.214 995.873,1012.88 986,1041.5C 949.609,1159.45 913.109,1277.12 876.5,1394.5 Z"/></g>
<g><path style="opacity:1" fill="#ffe6ba" d="M 570.5,1038.5 C 571.5,1157.33 571.833,1276.33 571.5,1395.5C 492.998,1395.83 414.665,1395.5 336.5,1394.5C 414.5,1394.5 492.5,1394.5 570.5,1394.5C 570.5,1275.83 570.5,1157.17 570.5,1038.5 Z"/></g>
<g><path style="opacity:1" fill="#fee6ba" d="M 641.5,1038.5 C 641.5,1157.17 641.5,1275.83 641.5,1394.5C 719.833,1394.5 798.167,1394.5 876.5,1394.5C 798.002,1395.5 719.335,1395.83 640.5,1395.5C 640.167,1276.33 640.5,1157.33 641.5,1038.5 Z"/></g>
<g><path style="opacity:0.991" fill="#fefefe" d="M 523.5,1490.5 C 544.413,1488.86 558.247,1497.86 565,1517.5C 568.022,1535.95 561.522,1549.78 545.5,1559C 476.62,1573.84 407.62,1588.18 338.5,1602C 312.055,1604.63 297.389,1592.79 294.5,1566.5C 295.261,1551.58 302.261,1540.75 315.5,1534C 384.891,1519.16 454.224,1504.66 523.5,1490.5 Z"/></g>
<g><path style="opacity:0.992" fill="#fefefe" d="M 876.5,1528.5 C 896.985,1527.15 910.485,1536.15 917,1555.5C 920.368,1576.95 911.868,1591.12 891.5,1598C 706.89,1638.26 522.223,1678.26 337.5,1718C 307.293,1719.79 293.126,1705.63 295,1675.5C 298.491,1661.34 307.324,1652.51 321.5,1649C 506.727,1609.26 691.727,1569.09 876.5,1528.5 Z"/></g>
<g><path style="opacity:0.991" fill="#fefefe" d="M 875.5,1644.5 C 888.639,1643.24 899.805,1647.24 909,1656.5C 920.972,1673.99 920.139,1690.83 906.5,1707C 902.828,1709.84 898.828,1712.17 894.5,1714C 823.798,1729.14 752.965,1743.64 682,1757.5C 659.845,1755.51 648.012,1743.51 646.5,1721.5C 646.179,1705.31 653.512,1694.14 668.5,1688C 737.632,1673.54 806.632,1659.04 875.5,1644.5 Z"/></g>
<g><path style="opacity:0.997" fill="#fefefe" d="M 637.5,2047.5 C 616.167,2047.5 594.833,2047.5 573.5,2047.5C 513.041,2042.8 456.708,2024.97 404.5,1994C 363.591,1969.09 332.424,1935.26 311,1892.5C 298.21,1865.22 292.877,1836.55 295,1806.5C 298.719,1794.88 306.552,1787.72 318.5,1785C 510.167,1784.33 701.833,1784.33 893.5,1785C 907.454,1787.95 915.621,1796.45 918,1810.5C 918.5,1856 904.834,1896.67 877,1932.5C 842.989,1973.16 801.156,2002.99 751.5,2022C 714.522,2035.69 676.522,2044.19 637.5,2047.5 Z"/></g>
<g><path style="opacity:1" fill="#969696" d="M 359.5,1845.5 C 524.168,1845.17 688.835,1845.5 853.5,1846.5C 843.216,1878.57 824.883,1905.07 798.5,1926C 757.902,1956.66 712.236,1975.66 661.5,1983C 595.652,1993.12 531.986,1985.45 470.5,1960C 438.079,1946.05 410.246,1925.88 387,1899.5C 373.869,1883.57 364.703,1865.57 359.5,1845.5 Z"/></g>
</svg>
